<svg height="512pt" viewBox="-85 0 512 512.0009" width="512pt" xmlns="http://www.w3.org/2000/svg"><path d="m119.847656 14.84375c-11.917968-11.917969-28.292968-16.652344-43.757812-14.226562-3.261719.511718-5.824219 3.074218-6.335938 6.335937-2.425781 15.464844 2.308594 31.839844 14.226563 43.757813 13.273437 13.273437 32.621093 18.1875 49.542969 13.675781 4.511718-16.921875-.402344-36.269531-13.675782-49.542969zm0 0" fill="#b0db3a"/><path d="m186.191406 214.546875c-1.328125 0-2.671875-.171875-4.011718-.527344-8.242188-2.210937-13.136719-10.683593-10.925782-18.925781l38.96875-145.441406c9.578125-35.753906 46.257813-56.925782 82.011719-47.351563 35.664063 9.558594 56.90625 46.347657 47.347656 82.011719-2.207031 8.246094-10.683593 13.132812-18.925781 10.925781s-13.132812-10.683593-10.925781-18.925781c5.148437-19.203125-6.289063-39.011719-25.492188-44.160156-19.242187-5.160156-39.003906 6.238281-44.160156 25.496094l-38.972656 145.441406c-1.851563 6.90625-8.09375 11.457031-14.914063 11.457031zm0 0" fill="#ff5368"/><path d="m187.089844 64.386719c0 14.792969-11.992188 26.78125-26.785156 26.78125-14.792969 0-26.785157-11.988281-26.785157-26.78125s11.992188-26.785157 26.785157-26.785157c14.792968 0 26.785156 11.992188 26.785156 26.785157zm0 0" fill="#ff5368"/><path d="m213.875 91.167969c0 14.792969-11.992188 26.785156-26.785156 26.785156-14.792969 0-26.785156-11.992187-26.785156-26.785156 0-14.789063 11.992187-26.78125 26.785156-26.78125 14.792968 0 26.785156 11.992187 26.785156 26.78125zm0 0" fill="#ffcf5d"/><path d="m160.304688 91.167969c0 14.792969-11.992188 26.785156-26.785157 26.785156s-26.785156-11.992187-26.785156-26.785156c0-14.789063 11.992187-26.78125 26.785156-26.78125s26.785157 11.992187 26.785157 26.78125zm0 0" fill="#d43453"/><path d="m101.890625 91.167969v212.601562l-79.867187 79.867188c-29.363282 29.363281-29.363282 76.976562 0 106.339843 14.683593 14.683594 33.929687 22.023438 53.171874 22.023438 19.242188 0 38.488282-7.339844 53.171876-22.023438l106.261718-106.261718c11.300782-11.300782 17.648438-26.628906 17.648438-42.609375v-249.9375zm0 0" fill="#ff5368"/><path d="m252.277344 91.167969h-30.902344v187.464843l30.902344-5.285156zm0 0" fill="#d43453"/><path d="m168.601562 406.035156-62.089843 62.089844c-3.019531 3.015625-6.398438 5.539062-10.039063 7.539062l6.476563 31.035157c.003906 0 .007812-.003907.007812-.003907 9.25-3.667968 17.921875-9.234374 25.410157-16.71875l58.351562-58.351562zm0 0" fill="#d43453"/><path d="m221.375 278.632812c-36.011719 12.726563-61.8125 47.0625-61.8125 87.429688 0 14.316406 3.246094 27.871094 9.039062 39.972656l18.117188 25.589844 65.558594-158.277344zm0 0" fill="#ff7c8b"/><path d="m96.472656 475.664062c-14.113281-37.417968-49.355468-64.46875-91.195312-66.550781-10.691406 27.027344-5.117188 59 16.746094 80.863281 21.363281 21.363282 53.207031 27.714844 80.925781 16.722657zm0 0" fill="#ff7c8b"/><path d="m75.195312 481.09375c-14.890624 0-27.316406 10.535156-30.25 24.550781 18.355469 8.0625 39.269532 8.484375 58.003907 1.054688.003906-.003907.007812-.003907.007812-.003907-.550781-10.878906-2.8125-21.300781-6.484375-31.03125-6.449218 3.542969-13.714844 5.429688-21.277344 5.429688zm0 0" fill="#ff5368"/><path d="m221.375 278.632812v56.285157c0 11.746093-4.667969 23.011719-12.972656 31.316406l-39.800782 39.804687c4.566407 9.546876 10.71875 18.1875 18.117188 25.585938l50.472656-50.472656c9.660156-9.660156 15.085938-22.761719 15.085938-36.421875v-71.382813c-10.835938 0-21.238282 1.867188-30.902344 5.285156zm0 0" fill="#ff5368"/><path d="m252.289062 183.886719h-154.527343c-8.535157 0-15.453125-6.917969-15.453125-15.453125v-61.8125c0-8.53125 6.917968-15.453125 15.453125-15.453125h154.527343c8.53125 0 15.449219 6.921875 15.449219 15.453125v61.8125c0 8.535156-6.917969 15.453125-15.449219 15.453125zm0 0" fill="#f4eee0"/><path d="m252.289062 91.167969h-15.453124v61.816406h-154.527344v15.449219c0 8.535156 6.917968 15.453125 15.453125 15.453125h154.527343c8.53125 0 15.449219-6.917969 15.449219-15.453125v-61.8125c0-8.53125-6.917969-15.453125-15.449219-15.453125zm0 0" fill="#d3cdbf"/></svg>