<svg height="511pt" viewBox="1 1 511.99988 511" width="511pt" xmlns="http://www.w3.org/2000/svg"><path d="m301.066406 322.777344 21.210938-21.210938 84.851562 84.851563-21.210937 21.210937zm0 0" fill="#c6e2e7"/><path d="m301.066406 322.777344 10.605469-10.605469 84.851563 84.851563-10.605469 10.605468zm0 0" fill="#8ebac5"/><path d="m332.886719 57.613281c-76.152344-76.152343-199.621094-76.152343-275.769531 0-76.152344 76.152344-76.152344 199.617188 0 275.769531 76.148437 76.152344 199.617187 76.152344 275.769531 0 76.148437-76.152343 76.148437-199.617187 0-275.769531zm0 0" fill="#5a5a5a"/><path d="m57.117188 57.613281 275.773437 275.769531c-76.15625 76.15625-199.617187 76.15625-275.773437 0s-76.15625-199.613281 0-275.769531zm0 0" fill="#444"/><path d="m311.699219 312.195312c-64.5 64.5-168.898438 64.5-233.398438 0s-64.5-168.898437 0-233.398437 168.898438-64.5 233.398438 0 64.5 168.898437 0 233.398437zm0 0" fill="#deecf1"/><path d="m311.699219 312.195312c-64.5 64.5-168.898438 64.5-233.398438 0s-64.5-168.898437 0-233.398437zm0 0" fill="#c6e2e7"/><path d="m290.460938 100.039062c52.609374 52.605469 52.609374 138.308594 0 190.917969-52.605469 52.609375-138.308594 52.609375-190.917969 0s-52.609375-138.3125 0-190.917969c52.609375-52.609374 138.3125-52.609374 190.917969 0zm0 0" fill="#ff6c6c"/><path d="m99.542969 100.039062 190.917969 190.917969c-52.605469 52.609375-138.308594 52.609375-190.917969 0s-52.609375-138.308593 0-190.917969zm0 0" fill="#ff4949"/><path d="m396.527344 333.382812 102.269531 102.269532c17.605469 17.605468 17.605469 46.03125 0 63.640625-17.609375 17.605469-46.035156 17.605469-63.640625 0l-102.265625-102.269531c-5.941406-5.941407-5.941406-15.273438 0-21.214844l42.425781-42.425782c5.9375-5.941406 15.273438-5.941406 21.210938 0zm0 0" fill="#6e6e6e"/><path d="m332.890625 375.808594 21.210937-21.210938 144.695313 144.691406c-17.609375 17.609376-46.035156 17.605469-63.640625 0l-102.265625-102.265624c-5.941406-5.941407-5.941406-15.273438 0-21.214844zm0 0" fill="#444"/><path d="m209.972656 255.496094c0 8.285156-6.71875 15-15 15-8.285156 0-15-6.714844-15-15s6.714844-15 15-15c8.28125 0 15 6.714844 15 15zm0 0" fill="#c6e2e7"/><path d="m240 165.496094c0 19.5-12.597656 36.300781-30 42.296875v2.703125c0 8.398437-6.898438 15-15 15-8.402344 0-15-6.601563-15-15v-15c0-4.199219 1.800781-7.800782 4.199219-10.800782 3-2.398437 6.601562-4.199218 10.800781-4.199218 8.402344 0 15-6.601563 15-15 0-8.402344-6.597656-15-15-15s-15 6.597656-15 15c0 4.199218-1.800781 7.800781-4.199219 10.800781-3 2.398437-6.601562 4.199219-10.800781 4.199219-8.402344 0-15-6.601563-15-15 0-4.5.601562-8.699219 2.101562-12.902344 5.398438-18.597656 22.5-32.097656 42.898438-32.097656 24.902344 0 45 20.097656 45 45zm0 0" fill="#deecf1"/><g fill="#c6e2e7"><path d="m152.101562 152.59375 23.699219 23.703125c-3 2.398437-6.601562 4.199219-10.800781 4.199219-8.402344 0-15-6.601563-15-15 0-4.5.601562-8.699219 2.101562-12.902344zm0 0"/><path d="m210 210.496094c0 8.398437-6.898438 15-15 15-8.402344 0-15-6.601563-15-15v-15c0-4.199219 1.800781-7.800782 4.199219-10.800782zm0 0"/></g></svg>